<svg class="icon" width="200" height="200" viewBox="0 0 1024 1024" xmlns="http://www.w3.org/2000/svg"><path d="M904 876H120c-30.9 0-56-25.1-56-56V204c0-30.9 25.1-56 56-56h784c30.9 0 56 25.1 56 56v616c0 30.9-25.1 56-56 56zm0-616c0-30.9-25.1-56-56-56H176c-30.9 0-56 25.1-56 56v504c0 30.9 25.1 56 56 56h672c30.9 0 56-25.1 56-56V260zM792 624H624c-15.5 0-28-12.5-28-28s12.5-28 28-28h168c15.5 0 28 12.5 28 28s-12.5 28-28 28zm0-140H624c-15.5 0-28-12.5-28-28s12.5-28 28-28h168c15.5 0 28 12.5 28 28s-12.5 28-28 28zM540 680c0 15.5-12.5 28-28 28s-28-12.5-28-28c0-61.9-50.1-112-112-112s-112 50.1-112 112c0 15.5-12.5 28-28 28s-28-12.5-28-28c0-63.4 35.5-117.9 87.4-146.5C272 513.3 260 486.1 260 456c0-61.9 50.1-112 112-112s112 50.1 112 112c0 30.1-12 57.3-31.4 77.5C504.5 562.1 540 616.6 540 680zM372 400c-30.9 0-56 25.1-56 56s25.1 56 56 56 56-25.1 56-56-25.1-56-56-56z"/></svg>