<svg class="icon" width="200" height="200" viewBox="0 0 1024 1024" xmlns="http://www.w3.org/2000/svg"><path d="M981.333 298.667H896v426.666h85.333A42.667 42.667 0 0 0 1024 682.667V341.333a42.667 42.667 0 0 0-42.667-42.666zM0 341.333v341.334a42.667 42.667 0 0 0 42.667 42.666H128V298.667H42.667A42.667 42.667 0 0 0 0 341.333zm810.667-170.666H213.333a42.667 42.667 0 0 0-42.666 42.666v597.334a42.667 42.667 0 0 0 42.666 42.666h597.334a42.667 42.667 0 0 0 42.666-42.666V213.333a42.667 42.667 0 0 0-42.666-42.666zM351.189 314.155c38.102 0 68.907 30.805 68.907 68.906s-30.805 68.907-68.907 68.907a68.864 68.864 0 1 1 0-137.813zM236.373 768s37.632-228.821 112.64-228.821 66.048 63.914 122.454 63.914 79.701-197.034 155.52-197.034c75.776 0 160.64 361.941 160.64 361.941H236.373z"/></svg>