<svg class="icon" width="200" height="197.87" viewBox="0 0 1035 1024" xmlns="http://www.w3.org/2000/svg"><path d="M851.453 900.386a167.591 167.591 0 0 1-143.505-255.514L632.32 536.85a270.729 270.729 0 0 1-215.595 8.14l-65.408 140.362a202.12 202.12 0 1 1-96.513-58.671l65.914-141.428a281.172 281.172 0 1 1 401.77-15.271l72.988 103.98a168.434 168.434 0 1 1 55.976 326.424zM205.791 731.952a84.217 84.217 0 1 0 84.217 84.217 84.217 84.217 0 0 0-84.217-84.217zm308.795-617.59A167.872 167.872 0 0 0 401.792 407.1a46.993 46.993 0 0 1 39.3 26.556 168.434 168.434 0 1 0 73.494-319.294zm336.867 561.445a56.145 56.145 0 1 0 56.145 56.145 56.145 56.145 0 0 0-56.145-56.145z"/></svg>