<svg class="icon" width="200" height="200" viewBox="0 0 1024 1024" xmlns="http://www.w3.org/2000/svg"><path d="M778.417 773.632l-55.854 74.473-93.091-153.6c13.963-4.655 27.927-9.31 37.236-18.618 0 0 4.655 0 4.655-4.655 9.309-4.655 18.618-13.964 27.927-18.618 4.655 0 4.655-4.655 9.31-4.655 9.308-4.654 18.617-13.963 23.272-18.618l9.309-9.309c9.309-4.655 13.964-13.964 18.618-18.618 0-4.655 4.655-4.655 9.31-9.31l102.4 172.219-93.092 9.309zm-390.982-102.4c-18.618-4.655-32.581-9.31-51.2-18.618-13.963-4.655-27.927-13.964-41.89-23.273 0 0-4.655 0-4.655-4.654-13.964-9.31-23.273-18.619-37.236-27.928-4.655 0-4.655-4.654-9.31-4.654-9.309-9.31-23.272-18.618-32.581-32.582-46.546-55.855-74.473-125.673-74.473-200.146 0-172.218 153.6-311.854 339.782-311.854s335.127 144.29 335.127 316.509c0 65.164-18.618 125.673-60.509 181.527-9.309 9.31-18.618 23.273-27.927 32.582l-4.655 4.655c-9.309 9.309-23.273 18.618-37.236 27.927 0 0-4.655 0-4.655 4.654-27.927 18.619-60.509 37.237-93.09 46.546h-4.655l-9.31 4.654c-32.581 9.31-65.163 13.964-97.745 13.964-27.927 0-55.854-4.654-83.782-9.309zm-41.89 37.236l-88.437 139.637-55.854-74.473-97.746-4.655L196.6 620.032h4.655l27.927 27.927s4.654 4.655 9.309 4.655c9.31 4.654 18.618 13.963 27.927 18.618 4.655 0 9.31 4.655 9.31 4.655l27.927 13.963c4.654 0 4.654 4.655 9.309 4.655 9.309 0 18.618 4.654 32.582 13.963 0-4.654 0-4.654 0 0zm456.145-153.6c37.236-55.854 55.855-121.018 55.855-190.836C857.545 163.887 685.326.977 471.217.977c-209.454 0-381.672 162.91-381.672 363.055 0 79.127 27.927 153.6 74.472 214.11L24.381 806.213l148.945 9.309 83.782 116.364 130.327-218.764c27.928 4.654 51.2 9.309 79.128 9.309 37.236 0 74.472-4.655 107.054-13.964L708.6 931.887l83.782-116.364 148.945-9.31L801.69 554.869z"/><path d="M326.926 339.782l102.4-13.964 46.546-83.782 46.545 83.782 102.4 13.964-74.472 65.163 18.618 93.091-88.437-46.545-88.436 46.545 18.618-93.09-83.782-65.164zm302.546 242.036L596.89 418.91 722.563 307.2l-172.218-23.273-74.473-148.945-79.127 148.945L224.526 307.2 350.2 418.91l-27.927 162.908 153.6-74.473 153.6 74.473z"/></svg>