<svg class="icon" width="200" height="183.84" viewBox="0 0 1114 1024" xmlns="http://www.w3.org/2000/svg"><path d="M993.886 442.73v521.035A60.235 60.235 0 0 1 933.651 1024H701.896a60.235 60.235 0 0 1-60.236-60.235V722.1H465.05v241.664A60.235 60.235 0 0 1 404.816 1024H180.71a60.235 60.235 0 0 1-60.235-60.235V445.44l-70.988 59.512a30.118 30.118 0 1 1-38.731-46.14L549.5 7.048a30.118 30.118 0 0 1 39.183.421l515.404 451.765a30.118 30.118 0 0 1-39.695 45.297l-70.506-61.802zm-60.205-52.767L568.414 69.813 180.71 394.873v568.892h224.105V722.1a60.235 60.235 0 0 1 60.236-60.236h176.61a60.235 60.235 0 0 1 60.235 60.236v241.664H933.65V391.529l.03-1.566z"/></svg>