<svg class="icon" width="200" height="200" viewBox="0 0 1024 1024" xmlns="http://www.w3.org/2000/svg"><path d="M920.212 284.119l-2.528-22.1-22.394-.883c-3.35-.058-84.287-4.29-95.161-99.863l-1.822-15.87-15.048-5.584C516.82 41.837 517.055 41.954 509.825 41.837h-7.465l-4.114 2.586c-8.875 3.233-51.9 19.103-259.21 95.455l-14.988 5.584-1.822 15.87c-10.698 92.751-86.874 99.452-95.338 99.804l-22.16.882-2.703 22.1c-.588 5.232-57.25 524.651 391.93 696.4l4.585 1.704h25.333l4.526-1.704c449.121-171.749 392.4-691.168 391.813-696.4M514.175 930.205h-5.996C338.9 863.96 227.751 737.413 177.966 554.144c-29.095-107.035-27.92-203.842-25.686-244.163 43.73-9.875 103.273-44.084 119.143-126.549 161.345-59.365 218.359-80.29 239.225-88.166 16.693 6.054 70.004 25.627 240.107 88.166 16.047 82.465 75.412 116.674 119.26 126.549 4.997 92.046 3.468 479.626-355.84 620.223m0 0z"/><path d="M511.177 203.887l-83.23 168.575-186.03 27.037 134.6 131.192-31.799 185.15 166.46-87.461L677.4 715.841l-31.682-185.15L780.38 399.5l-186.09-27.037-83.112-168.575m0 0z"/></svg>