<svg class="icon" width="200" height="200" viewBox="0 0 1024 1024" xmlns="http://www.w3.org/2000/svg"><path d="M907 689.8h-34.4c-3.2-7-7.8-21.5-13.7-31.9l24.3-23.6c7.7-7.7 7.7-19.7 0-27.4l-27.8-27.6c-7.7-7.7-20.1-7.6-27.8.1l-22.9 24.3c-10.3-5.9-24.9-10.5-31.9-13.7v-34.4c0-10.8-11.5-19.6-22.3-19.6h-39.3c-10.8 0-22.3 8.8-22.3 19.6V590c-7 3.2-21.5 7.8-31.9 13.7l-23.6-24.3c-7.7-7.7-19.8-7.7-27.4 0l-27.6 27.8c-7.7 7.7-7.6 20.1.1 27.8l24.4 22.9c-5.9 10.4-10.5 24.9-13.7 31.9h-34.4c-10.8 0-19.7 11.5-19.7 22.3v39.2c0 10.8 8.8 22.3 19.7 22.3h34.4c3.2 7 7.9 21.5 13.7 31.9l-24.3 23.7c-7.7 7.7-7.7 19.7 0 27.4l27.8 27.6c7.7 7.7 20.1 7.6 27.8-.1l22.9-24.4c10.4 5.9 24.9 10.5 31.9 13.7v34.4c0 10.8 11.5 19.6 22.3 19.6h39.2c10.8 0 22.3-8.8 22.3-19.7v-34.4c7-3.2 21.5-7.9 31.9-13.7l23.6 24.3c7.7 7.7 19.7 7.7 27.4 0l27.6-27.8c7.7-7.7 7.6-20.1-.1-27.8l-24.3-22.9c5.9-10.4 10.5-24.9 13.7-31.9H907c10.8 0 19.6-11.5 19.6-22.3v-39.3c0-10.6-8.7-22.1-19.6-22.1zM730.9 820c-48.8 0-88.3-39.5-88.3-88.3s39.5-88.3 88.3-88.3 88.3 39.5 88.3 88.3-39.5 88.3-88.3 88.3zm0 0"/><path d="M581.4 940.4c4-10 4.8-19.1 4.5-31.4-.3-14.1-1.5-19.9-9.1-30.5-3.7-5.2-10.4-9.8-18.2-12.8-8.5-3.4-15.4-4.1-18.7-3.9-9 .4-24.8 1.4-30.4 6.9h-1c-4.5 0-9.7-3.9-13.5-9-3-4.1-4.5-9-9-18-13.5-26.9-22.5-58.4-22.5-62.9V473.2c0-9.9 8.1-18 18-18h215.6v35.9c0 4.5 9 13.5 13.5 18 9 9 22.5 13.5 35.9 13.5 9 0 17.5-1.1 27-4.5V144.6c0-51.5-42.1-93.6-93.6-93.6H189c-51.5 0-93.6 42.1-93.6 93.6v720.1c0 51.5 42.1 93.6 93.6 93.6h388v-4.5s-.5-1.2 2.7-9.6l1.7-3.8zM549 167.8l13.5 58.4c4.5 18 31.4 18 35.9 0l13.5-58.4h31.4l13.5 58.4c4.5 18 31.4 18 35.9 0l13.5-58.4h31.4l-40.4 188.7c0 9-9 13.5-18 13.5h-13.5c-9 0-18-4.5-18-13.5l-9-44.9c-4.5-18-31.4-18-35.9 0l-9 44.9c0 9-9 13.5-18 13.5h-13.5c-9 0-18-4.5-18-13.5l-27-188.7H549zm-175.2 17.9c0-9.9 8.1-18 18-18h98.8v31.4h-71.9c-9.9 0-18 8.1-18 18v13.5c0 9.9 8.1 18 18 18h71.9V280h-71.9c-9.9 0-18 8.1-18 18v13.5c0 9.9 8.1 18 18 18h71.9v31.4h-98.8c-9.9 0-18-8.1-18-18V185.7zm-157.2-17.9h13.5c9 0 13.5 4.5 18 9L302 302.5V185.7c0-9.9 8.1-18 18-18h9c9.9 0 18 8.1 18 18V352c0 9.9-8.1 18-18 18h-13.5c-9 0-13.5-4.5-18-9l-53.9-125.8v121.3c0 9.9-8.1 18-18 18h-9c-9.9 0-18-8.1-18-18V190.2c0-13.4 9-22.4 18-22.4zm170.7 606.4H216.6c-9.9 0-18-8.1-18-18v-13.5c0-9.9 8.1-18 18-18h170.7c9.9 0 18 8.1 18 18v13.5c0 9-9 18-18 18zm0-134.7H216.6c-9.9 0-18-8.1-18-18V608c0-9.9 8.1-18 18-18h170.7c9.9 0 18 8.1 18 18v13.5c0 9-9 18-18 18zm0-134.8H216.6c-9.9 0-18-8.1-18-18v-13.5c0-9.9 8.1-18 18-18h170.7c9.9 0 18 8.1 18 18v13.5c0 9-9 18-18 18zm0 0"/></svg>