<svg class="icon" width="200" height="200" viewBox="0 0 1024 1024" xmlns="http://www.w3.org/2000/svg"><path d="M716.4 928.1H179.6c-43.3 0-81.3-35.5-81.3-75.9V174.3c0-40.4 38-75.9 81.3-75.9h536.9c43.3 0 81.3 35.5 81.3 75.9v65.1h-54.2v-65.1c0-10.8-13.7-21.7-27.1-21.7H179.6c-13.5 0-27.1 10.9-27.1 21.7v677.9c0 10.8 13.7 21.7 27.1 21.7h536.9c13.5 0 27.1-11 27.1-21.7v-65.1h54.2v65.1c0 40.4-38 75.9-81.4 75.9z"/><path d="M748.5 743.4H642.8v-48.6c-13.9-4.8-27.5-11-40.7-17.5l-36.6 36.6-72.1-72.1 35.9-35.9c-6.8-13.1-12.7-28-16.9-41.4h-48.5V458.7h48.6c4.8-13.8 11-27.4 17.5-40.7l-36.6-36.6 72.1-72.1 36.6 36.6c13.3-6.5 26.8-12.8 40.7-17.5v-48.6h105.7v48.6c13.9 4.8 27.4 11 40.7 17.5l36.6-36.6 72.1 72.1-35.9 35.9c6.8 13.1 12.7 28 16.9 41.4h48.5v105.7h-48.6c-4.8 13.8-11 27.4-17.5 40.7l36.6 36.6-72.1 72.1L790 678c-13.1 6.8-28 12.7-41.5 17v48.4zm-65-40.7h24.4v-39l15.4-3.8c20.7-5.2 45.4-15.4 58.7-24.3l13.9-9.2 30 29.9 14.6-14.6-28.5-28.5 6.6-13.1c10.2-20.3 20.7-41.3 25.5-60.9l3.9-15.4h39v-24.4h-39l-3.9-15.4c-5.1-20.6-15.3-45.3-24.3-58.7l-9.3-13.9 30-29.9-14.6-14.6-28.5 28.5-13.1-6.6c-20.3-10.2-41.3-20.7-60.9-25.6l-15.4-3.8v-39h-24.4v39l-15.4 3.8c-19.6 4.9-40.6 15.4-60.9 25.6l-13.1 6.6-28.5-28.5-14.6 14.6 28.5 28.5-6.6 13.1c-10.6 21.3-20.7 41.4-25.5 60.9l-3.9 15.4h-39v24.4h39l3.9 15.4c5.1 20.6 15.3 45.3 24.3 58.7l9.2 13.9-30 29.9 14.6 14.6 28.5-28.5 13.1 6.6c20.2 10.1 41.1 20.6 60.9 25.6l15.4 3.8v38.9zM202.7 284.1h211.5v40.7H202.7zm0 135.6h211.5v40.7H202.7zm0 141h211.5v40.7H202.7zm0 141h211.5v40.7H202.7z"/><path d="M695.7 606.1c-52.2 0-94.6-42.4-94.6-94.6 0-52.1 42.4-94.6 94.6-94.6 52.2 0 94.6 42.4 94.6 94.6-.1 52.2-42.5 94.6-94.6 94.6zm0-148.4c-29.7 0-53.9 24.2-53.9 53.9s24.2 53.9 53.9 53.9 53.9-24.2 53.9-53.9c0-29.8-24.2-53.9-53.9-53.9z"/></svg>