<svg class="icon" width="200" height="200" viewBox="0 0 1024 1024" xmlns="http://www.w3.org/2000/svg"><path d="M717.44 336.32c0-159.36-129.6-288.96-288.96-288.96s-288 130.56-288 288.96c0 96.96 49.92 188.16 129.6 240.96-134.4 62.4-222.72 196.8-222.72 347.52 0 23.04 18.24 41.28 41.28 41.28s41.28-18.24 41.28-41.28c0-165.12 134.4-299.52 299.52-299.52 40.32 0 79.68 7.68 116.16 23.04 10.56 3.84 21.12 4.8 31.68 0 10.56-3.84 18.24-12.48 22.08-22.08 7.68-17.28 1.92-37.44-12.48-48.96 80.64-51.84 130.56-143.04 130.56-240.96zm-82.56 0c0 113.28-92.16 206.4-206.4 206.4s-206.4-92.16-206.4-206.4c0-113.28 92.16-206.4 206.4-206.4s206.4 93.12 206.4 206.4zM973.76 732.8c-1.92-5.76-5.76-11.52-11.52-13.44a20.333 20.333 0 0 0-18.24 0c-3.84 1.92-7.68 2.88-11.52 2.88-14.4 0-26.88-11.52-26.88-26.88 0-8.64 3.84-16.32 10.56-21.12 4.8-3.84 8.64-9.6 8.64-16.32s-1.92-12.48-6.72-16.32c-22.08-20.16-48-34.56-75.84-43.2-5.76-1.92-12.48-.96-17.28 2.88-4.8 2.88-8.64 8.64-9.6 14.4-1.92 13.44-13.44 23.04-26.88 23.04s-24.96-9.6-26.88-23.04c-.96-5.76-3.84-11.52-9.6-14.4-4.8-2.88-11.52-3.84-17.28-2.88-29.76 8.64-57.6 24.96-79.68 47.04-4.8 3.84-6.72 10.56-6.72 16.32s2.88 11.52 8.64 15.36c6.72 4.8 10.56 12.48 10.56 21.12 0 14.4-11.52 26.88-26.88 26.88-2.88 0-6.72-.96-9.6-1.92-5.76-1.92-12.48-1.92-17.28.96-5.76 2.88-9.6 7.68-10.56 14.4-2.88 14.4-4.8 28.8-4.8 44.16 0 14.4 1.92 29.76 4.8 44.16.96 5.76 4.8 10.56 10.56 13.44 4.8 2.88 11.52 3.84 17.28 1.92 2.88-.96 5.76-.96 7.68-.96 14.4 0 26.88 11.52 26.88 26.88 0 7.68-2.88 15.36-9.6 20.16-4.8 3.84-6.72 9.6-7.68 15.36 0 5.76 1.92 11.52 6.72 15.36 22.08 22.08 50.88 38.4 80.64 47.04 5.76 1.92 12.48.96 17.28-2.88 4.8-2.88 8.64-8.64 9.6-14.4 1.92-13.44 13.44-23.04 26.88-23.04s24.96 9.6 26.88 23.04c.96 5.76 3.84 11.52 9.6 14.4 3.84 1.92 7.68 3.84 11.52 3.84 1.92 0 3.84 0 5.76-.96 28.8-8.64 56.64-24 78.72-45.12 4.8-3.84 6.72-10.56 6.72-16.32s-2.88-11.52-8.64-15.36c-6.72-4.8-10.56-12.48-10.56-21.12 0-14.4 11.52-26.88 26.88-26.88 3.84 0 6.72.96 10.56 1.92 5.76 1.92 12.48 1.92 17.28-.96 5.76-2.88 9.6-7.68 10.56-13.44 3.84-15.36 5.76-30.72 5.76-46.08-.96-18.24-2.88-34.56-6.72-49.92zM788.48 866.24c-47.04 0-84.48-38.4-84.48-84.48s38.4-84.48 84.48-84.48 84.48 38.4 84.48 84.48-37.44 84.48-84.48 84.48z"/><path d="M772.061 820.174a42.24 42.24 0 1 0 32.33-78.05 42.24 42.24 0 1 0-32.33 78.05z"/></svg>