<svg class="icon" width="200" height="148.95" viewBox="0 0 1375 1024" xmlns="http://www.w3.org/2000/svg"><path d="M788.828 168.14h428.465v90.412H788.828v-90.413zm0 194.786h428.465v90.41H788.828v-90.41zm112.379 207.872h316.086v90.418H901.207v-90.418zm-26.97 444.926c0-203.248-139.64-374.034-327.868-422.776C659.388 549.03 739.807 439.365 739.807 310.99c0-166.932-135.751-302.714-302.683-302.714-166.94 0-302.691 135.782-302.691 302.714 0 128.375 80.419 238.04 193.435 281.958C139.635 641.69 0 812.476 0 1015.724h.083c0 .533-.024 1.065-.024 1.589 0 2.241.054 4.461.083 6.687h90.562a369.141 369.141 0 0 1-.082-6.687c0-191.382 155.148-346.525 346.53-346.525 191.377 0 346.525 155.143 346.525 346.525 0 2.241-.044 4.467-.082 6.687h90.56c.03-2.226.083-4.454.083-6.687 0-.524-.022-1.056-.022-1.589h.022zM226.366 310.99c0-116.22 94.555-210.751 210.759-210.751 116.194 0 210.75 94.524 210.75 210.75 0 116.182-94.556 210.737-210.75 210.737-116.204 0-210.76-94.555-210.76-210.736zm0 0"/><path d="M1297.292 0H699.091v90.418h554.908c17.352 0 31.421 14.063 31.421 31.416v780.334c0 17.35-14.069 31.422-31.42 31.422h-228.697V1024h271.99c43.377 0 78.538-35.163 78.538-78.539V78.546C1375.83 35.17 1340.67 0 1297.292 0zm0 0"/></svg>