<svg class="icon" width="200" height="200" viewBox="0 0 1024 1024" xmlns="http://www.w3.org/2000/svg"><path d="M972.8 486.4a25.6 25.6 0 0 0-25.6 25.6c0 239.974-195.226 435.2-435.2 435.2S76.8 751.974 76.8 512 272.026 76.8 512 76.8a25.6 25.6 0 1 0 0-51.2C243.789 25.6 25.6 243.789 25.6 512S243.789 998.4 512 998.4 998.4 780.211 998.4 512a25.6 25.6 0 0 0-25.6-25.6z"/><path d="M708.275 153.6h144.589L450.867 571.06a25.6 25.6 0 1 0 36.915 35.48l443.75-460.8a25.6 25.6 0 0 0-18.457-43.34h-204.8a25.6 25.6 0 1 0 0 51.2z"/></svg>