<svg class="icon" width="200" height="200" viewBox="0 0 1024 1024" xmlns="http://www.w3.org/2000/svg"><path d="M256 219.429c-21.943 0-36.571 14.628-36.571 36.571v299.886c0 14.628 14.628 29.257 36.571 29.257h7.314c14.629 0 29.257-14.629 29.257-36.572V256c0-21.943-14.628-36.571-36.571-36.571zm512 438.857H402.286c-21.943 0-36.572 14.628-36.572 36.571s14.629 36.572 36.572 36.572H768c21.943 0 36.571-14.629 36.571-36.572S789.943 658.286 768 658.286zm-512 0c-21.943 0-36.571 14.628-36.571 36.571S234.057 731.43 256 731.43s36.571-14.629 36.571-36.572-14.628-36.571-36.571-36.571zm512-219.429H402.286c-21.943 0-36.572 14.629-36.572 36.572S380.343 512 402.286 512H768c21.943 0 36.571-14.629 36.571-36.571S789.943 438.857 768 438.857zm0-219.428H402.286c-21.943 0-36.572 14.628-36.572 36.571s14.629 36.571 36.572 36.571H768c21.943 0 36.571-14.628 36.571-36.571S789.943 219.429 768 219.429zM841.143 0H182.857C124.343 0 73.143 51.2 73.143 109.714v804.572c0 58.514 51.2 109.714 109.714 109.714h658.286c58.514 0 109.714-51.2 109.714-109.714V109.714C950.857 51.2 899.657 0 841.143 0zm36.571 914.286c0 21.943-14.628 36.571-36.571 36.571H182.857c-21.943 0-36.571-14.628-36.571-36.571V109.714c0-21.943 14.628-36.571 36.571-36.571h658.286c21.943 0 36.571 14.628 36.571 36.571v804.572z"/></svg>