<svg class="icon" width="200" height="200" viewBox="0 0 1024 1024" xmlns="http://www.w3.org/2000/svg"><path d="M342.72 745.28a32 32 0 1 0 0 45.44 32 32 0 0 0 0-45.44zm45.12-45.12a96 96 0 1 1-135.68 0 96 96 0 0 1 135.68 0z"/><path d="M928 736a32 32 0 0 1 0 64H384a32 32 0 0 1 0-64zm-672 0a32 32 0 0 1 0 64H96a32 32 0 0 1 0-64zm425.28-246.72a32 32 0 1 0 45.44 0 32 32 0 0 0-45.44 0zm90.56 90.56a96 96 0 1 1 0-135.68 96 96 0 0 1 0 135.68z"/><path d="M928 480a32 32 0 0 1 0 64H768a32 32 0 0 1 0-64zm-288 0a32 32 0 0 1 0 64H96a32 32 0 0 1 0-64zM342.72 233.28a32 32 0 1 0 0 45.44 32 32 0 0 0 0-45.44zm45.12-45.12a96 96 0 1 1-135.68 0 96 96 0 0 1 135.68 0z"/><path d="M928 224a32 32 0 0 1 0 64H384a32 32 0 0 1 0-64zm-672 0a32 32 0 0 1 0 64H96a32 32 0 0 1 0-64z"/></svg>